<svg viewBox="0 0 24 24" fill="none" xmlns="http://www.w3.org/2000/svg" aria-hidden="true">
  <path d="M12 2.2a7 7 0 0 0-7 7c0 5.25 7 12.6 7 12.6s7-7.35 7-12.6a7 7 0 0 0-7-7Z" fill="#EA4335"/>
  <path d="M12 2.2a7 7 0 0 0-6.1 3.57l5 4.06A3 3 0 0 1 14.9 8.2l3.9-2.04A7 7 0 0 0 12 2.2Z" fill="#1A73E8"/>
  <path d="M5.9 5.77A7 7 0 0 0 5 9.2c0 1.9.92 4.06 2.1 6.06l3.8-5.43-5-4.06Z" fill="#34A853"/>
  <path d="M18.8 6.16 14.9 8.2a3 3 0 0 1-4 4.05l-.99 1.41C11.6 16.2 12 16.6 12 16.6s4.2-4.4 6-9.07a7 7 0 0 0 .8-1.37Z" fill="#FBBC04"/>
  <circle cx="12" cy="9.2" r="2.6" fill="#fff"/>
</svg>
