<svg viewBox="0 0 24 24" fill="none" xmlns="http://www.w3.org/2000/svg" aria-hidden="true">
  <path d="M12 2.5c5 0 9 3.5 9 8 0 4.6-4.2 8-9.4 8a11 11 0 0 1-3.3-.5c-.9.7-2.4 1.3-3.8 1.3.7-.8 1.2-1.7 1.3-2.6C3.9 14.7 3 12.7 3 10.5c0-4.5 4-8 9-8Z" fill="#05C8F7"/>
  <circle cx="9.2" cy="10.4" r="1.15" fill="#fff"/>
  <circle cx="14.8" cy="10.4" r="1.15" fill="#fff"/>
  <path d="M9 13.6c.8 1.1 2 1.6 3 1.6s2.2-.5 3-1.6" stroke="#fff" stroke-width="1.3" stroke-linecap="round"/>
  <circle cx="8.8" cy="21" r="1.5" fill="#161616"/>
  <circle cx="15.2" cy="21" r="1.5" fill="#161616"/>
</svg>
